<svg width="458" height="639" xmlns="http://www.w3.org/2000/svg" xmlns:xlink="http://www.w3.org/1999/xlink" xml:space="preserve" overflow="hidden"><defs><clipPath id="clip0"><rect x="30" y="1952" width="458" height="639"/></clipPath></defs><g clip-path="url(#clip0)" transform="translate(-30 -1952)"><path d="M-5.38824 5.38824-5.38824-631.771 452.612-631.771 452.612 5.38824-5.38824 5.38824Z" stroke="#ED7D31" stroke-width="6" fill="#FFFFFF" transform="matrix(1 0 0 1.00162 35.3882 2585.2)"/><path d="M191.498-619.445C191.498-619.445 169.689-609.073 169.689-609.073 162.388-605.611 162.388-598.66 169.689-595.198 169.689-595.198 191.498-584.826 191.498-584.826 198.799-581.364 213.401-581.364 220.702-584.826 220.702-584.826 242.511-595.198 242.511-595.198 249.812-598.66 249.812-605.611 242.511-609.073 242.511-609.073 220.702-619.445 220.702-619.445 213.401-622.907 198.799-622.907 191.498-619.445" stroke="#ED7D31" stroke-width="6" fill="#CCFFCC" transform="matrix(1 0 0 1.00162 35.3882 2585.2)"/><text font-family="Times New Roman,Times New Roman_MSFontService,sans-serif" font-weight="400" font-size="14" transform="matrix(1.34706 0 0 1.34924 224.65 1987)">start</text><path d="M161.647-529.394C161.647-529.394 16.1647-529.394 16.1647-529.394 8.08235-529.394 0-521.312 0-513.229 0-513.229 0-433.753 0-433.753 0-425.671 8.08235-417.588 16.1647-417.588 16.1647-417.588 161.647-417.588 161.647-417.588 169.729-417.588 177.812-425.671 177.812-433.753 177.812-433.753 177.812-513.229 177.812-513.229 177.812-521.312 169.729-529.394 161.647-529.394" stroke="#ED7D31" stroke-width="6" fill="#CCFFCC" transform="matrix(1 0 0 1.00162 35.3882 2585.2)"/><text font-family="Times New Roman,Times New Roman_MSFontService,sans-serif" font-weight="400" font-size="14" transform="matrix(1.34706 0 0 1.34924 75.8 2075)">'debug<tspan font-size="14" x="37" y="0">=</tspan><tspan font-size="14" x="45" y="0">True</tspan><tspan font-size="14" x="-18.5" y="15.5643">home</tspan>=<tspan font-size="14" x="20.5" y="15.5643">C</tspan><tspan font-size="14" x="29.5" y="15.5643">:</tspan>Usersalibo<tspan font-size="14" x="6" y="30.3874">job</tspan>-<tspan font-size="14" x="28" y="30.3874">local</tspan><tspan font-size="14" x="54" y="30.3874">-</tspan><tspan font-size="14" x="59" y="30.3874">0</tspan><tspan font-size="14" x="-23.5" y="45.2105">07</tspan>/27<tspan font-size="14" x="8.5" y="45.2105">/</tspan>2022<tspan font-size="14" x="40.5" y="45.2105">, </tspan><tspan font-size="14" x="48.5" y="45.2105">11</tspan>:<tspan font-size="14" x="64.5" y="45.2105">01</tspan>:<tspan font-size="14" x="81.5" y="45.2105">05</tspan><tspan font-size="14" x="2.5" y="60.0336">progress</tspan><tspan font-size="14" x="51.5" y="60.0336">=</tspan><tspan font-size="14" x="59.5" y="60.0336">0</tspan>'</text><path d="M191.255-584.839C180.344-573.106 164.718-556.322 148.958-539.376" stroke="#ED7D31" stroke-width="6" fill="none" transform="matrix(1 0 0 1.00162 35.3882 2585.2)"/><path d="M152.325-536.076 139.69-529.421 145.415-542.501 152.325-536.076Z" stroke="#ED7D31" stroke-width="6" transform="matrix(1 0 0 1.00162 35.3882 2585.2)"/><path d="M431.059-529.394C431.059-529.394 218.224-529.394 218.224-529.394 210.141-529.394 202.059-521.312 202.059-513.229 202.059-513.229 202.059-433.753 202.059-433.753 202.059-425.671 210.141-417.588 218.224-417.588 218.224-417.588 431.059-417.588 431.059-417.588 439.141-417.588 447.224-425.671 447.224-433.753 447.224-433.753 447.224-513.229 447.224-513.229 447.224-521.312 439.141-529.394 431.059-529.394" stroke="#ED7D31" stroke-width="6" fill="#CCFFCC" transform="matrix(1 0 0 1.00162 35.3882 2585.2)"/><text font-family="Times New Roman,Times New Roman_MSFontService,sans-serif" font-weight="400" font-size="14" transform="matrix(1.34706 0 0 1.34924 311.535 2075)">'<tspan font-size="14" x="2.99999" y="0">debug</tspan><tspan font-size="14" x="37" y="0">=</tspan><tspan font-size="14" x="45" y="0">True</tspan><tspan font-size="14" x="-18.5" y="15.5643">home</tspan><tspan font-size="14" x="12.5" y="15.5643">=</tspan><tspan font-size="14" x="20.5" y="15.5643">C</tspan><tspan font-size="14" x="29.5" y="15.5643">:</tspan><tspan font-size="14" x="32.5" y="15.5643">Usersalibo</tspan><tspan font-size="14" x="-48.5" y="30.3874">job</tspan><tspan font-size="14" x="-31.5" y="30.3874">-</tspan><tspan font-size="14" x="-26.5" y="30.3874">rivanna</tspan><tspan font-size="14" x="14.5" y="30.3874">.</tspan><tspan font-size="14" x="18.5" y="30.3874">hpc</tspan><tspan font-size="14" x="39.5" y="30.3874">.</tspan><tspan font-size="14" x="43.5" y="30.3874">virginia</tspan><tspan font-size="14" x="84.5" y="30.3874">.</tspan><tspan font-size="14" x="88.5" y="30.3874">edu</tspan><tspan font-size="14" x="108.5" y="30.3874">-</tspan><tspan font-size="14" x="113.5" y="30.3874">3</tspan><tspan font-size="14" x="-23.5" y="45.2105">07</tspan><tspan font-size="14" x="-9.50002" y="45.2105">/</tspan><tspan font-size="14" x="-5.50002" y="45.2105">27</tspan><tspan font-size="14" x="8.49999" y="45.2105">/</tspan><tspan font-size="14" x="12.5" y="45.2105">2022</tspan><tspan font-size="14" x="40.5" y="45.2105">, </tspan><tspan font-size="14" x="48.5" y="45.2105">11</tspan><tspan font-size="14" x="61.5" y="45.2105">:</tspan><tspan font-size="14" x="64.5" y="45.2105">01</tspan>:05<tspan font-size="14" x="2.5" y="60.0336">progress</tspan><tspan font-size="14" x="51.5" y="60.0336">=</tspan><tspan font-size="14" x="59.5" y="60.0336">0</tspan>'</text><path d="M221.12-584.839C232.152-573.106 247.953-556.322 263.902-539.376" stroke="#ED7D31" stroke-width="6" fill="none" transform="matrix(1 0 0 1.00162 35.3882 2585.2)"/><path d="M267.472-542.461 273.264-529.421 260.602-536.008 267.472-542.461Z" stroke="#ED7D31" stroke-width="6" transform="matrix(1 0 0 1.00162 35.3882 2585.2)"/><path d="M191.808-40.9371C191.808-40.9371 174.565-31.8041 174.565-31.8041 167.426-28.0323 167.426-20.4618 174.565-16.6901 174.565-16.6901 191.808-7.557 191.808-7.557 198.961-3.78524 213.239-3.78524 220.392-7.557 220.392-7.557 237.635-16.6901 237.635-16.6901 244.774-20.4618 244.774-28.0323 237.635-31.8041 237.635-31.8041 220.392-40.9371 220.392-40.9371 213.239-44.7089 198.961-44.7089 191.808-40.9371" stroke="#ED7D31" stroke-width="6" fill="#FFFFFF" transform="matrix(1 0 0 1.00162 35.3882 2585.2)"/><text font-family="Times New Roman,Times New Roman_MSFontService,sans-serif" font-weight="400" font-size="14" transform="matrix(1.34706 0 0 1.34924 228.018 2566)">end</text><path d="M161.647-369.094C161.647-369.094 16.1647-369.094 16.1647-369.094 8.08235-369.094 0-361.012 0-352.929 0-352.929 0-273.453 0-273.453 0-265.371 8.08235-257.288 16.1647-257.288 16.1647-257.288 161.647-257.288 161.647-257.288 169.729-257.288 177.812-265.371 177.812-273.453 177.812-273.453 177.812-352.929 177.812-352.929 177.812-361.012 169.729-369.094 161.647-369.094" stroke="#ED7D31" stroke-width="6" fill="#CCFFCC" transform="matrix(1 0 0 1.00162 35.3882 2585.2)"/><text font-family="Times New Roman,Times New Roman_MSFontService,sans-serif" font-weight="400" font-size="14" transform="matrix(1.34706 0 0 1.34924 75.8 2236)">'debug<tspan font-size="14" x="37" y="0">=</tspan><tspan font-size="14" x="45" y="0">True</tspan><tspan font-size="14" x="-18.5" y="14.8231">home</tspan>=<tspan font-size="14" x="20.5" y="14.8231">C</tspan><tspan font-size="14" x="29.5" y="14.8231">:</tspan>Usersalibo<tspan font-size="14" x="6" y="29.6462">job</tspan>-<tspan font-size="14" x="28" y="29.6462">local</tspan><tspan font-size="14" x="54" y="29.6462">-</tspan><tspan font-size="14" x="59" y="29.6462">1</tspan><tspan font-size="14" x="-23.5" y="45.2105">07</tspan>/27<tspan font-size="14" x="8.5" y="45.2105">/</tspan>2022<tspan font-size="14" x="40.5" y="45.2105">, </tspan><tspan font-size="14" x="48.5" y="45.2105">11</tspan>:<tspan font-size="14" x="64.5" y="45.2105">01</tspan>:<tspan font-size="14" x="81.5" y="45.2105">05</tspan><tspan font-size="14" x="2.5" y="60.0336">progress</tspan><tspan font-size="14" x="51.5" y="60.0336">=</tspan><tspan font-size="14" x="59.5" y="60.0336">0</tspan>'</text><path d="M88.9059-417.467C88.9059-406.34 88.9059-394.5 88.9059-382.969" stroke="#ED7D31" stroke-width="6" fill="none" transform="matrix(1 0 0 1.00162 35.3882 2585.2)"/><path d="M93.6206-382.592 88.9059-369.121 84.1912-382.592 93.6206-382.592Z" stroke="#ED7D31" stroke-width="6" transform="matrix(1 0 0 1.00162 35.3882 2585.2)"/><path d="M161.647-208.794C161.647-208.794 16.1647-208.794 16.1647-208.794 8.08235-208.794 0-200.712 0-192.629 0-192.629 0-113.153 0-113.153 0-105.071 8.08235-96.9882 16.1647-96.9882 16.1647-96.9882 161.647-96.9882 161.647-96.9882 169.729-96.9882 177.812-105.071 177.812-113.153 177.812-113.153 177.812-192.629 177.812-192.629 177.812-200.712 169.729-208.794 161.647-208.794" stroke="#ED7D31" stroke-width="6" fill="#FFFFFF" transform="matrix(1 0 0 1.00162 35.3882 2585.2)"/><text font-family="Times New Roman,Times New Roman_MSFontService,sans-serif" font-weight="400" font-size="14" transform="matrix(1.34706 0 0 1.34924 75.8 2397)">'debug<tspan font-size="14" x="37" y="0">=</tspan><tspan font-size="14" x="45" y="0">True</tspan><tspan font-size="14" x="-18.5" y="14.8231">home</tspan>=<tspan font-size="14" x="20.5" y="14.8231">C</tspan><tspan font-size="14" x="29.5" y="14.8231">:</tspan>Usersalibo<tspan font-size="14" x="6" y="29.6462">job</tspan>-<tspan font-size="14" x="28" y="29.6462">local</tspan><tspan font-size="14" x="54" y="29.6462">-</tspan><tspan font-size="14" x="59" y="29.6462">2</tspan><tspan font-size="14" x="-23.5" y="44.4693">07</tspan>/27<tspan font-size="14" x="8.5" y="44.4693">/</tspan>2022<tspan font-size="14" x="40.5" y="44.4693">, </tspan><tspan font-size="14" x="48.5" y="44.4693">11</tspan>:<tspan font-size="14" x="64.5" y="44.4693">01</tspan>:<tspan font-size="14" x="81.5" y="44.4693">05</tspan><tspan font-size="14" x="2.5" y="60.0336">progress</tspan><tspan font-size="14" x="51.5" y="60.0336">=</tspan><tspan font-size="14" x="59.5" y="60.0336">0</tspan>'</text><path d="M88.9059-257.167C88.9059-246.04 88.9059-234.2 88.9059-222.669" stroke="#ED7D31" stroke-width="6" fill="none" transform="matrix(1 0 0 1.00162 35.3882 2585.2)"/><path d="M93.6206-222.292 88.9059-208.821 84.1912-222.292 93.6206-222.292Z" stroke="#ED7D31" stroke-width="6" transform="matrix(1 0 0 1.00162 35.3882 2585.2)"/><path d="M139.973-96.6649C154.615-80.9178 169.905-64.4972 182.082-51.4038" stroke="#ED7D31" stroke-width="6" fill="none" transform="matrix(1 0 0 1.00162 35.3882 2585.2)"/><path d="M185.786-54.3538 191.511-41.2739 178.876-47.9284 185.786-54.3538Z" stroke="#ED7D31" stroke-width="6" transform="matrix(1 0 0 1.00162 35.3882 2585.2)"/><path d="M431.059-369.094C431.059-369.094 218.224-369.094 218.224-369.094 210.141-369.094 202.059-361.012 202.059-352.929 202.059-352.929 202.059-273.453 202.059-273.453 202.059-265.371 210.141-257.288 218.224-257.288 218.224-257.288 431.059-257.288 431.059-257.288 439.141-257.288 447.224-265.371 447.224-273.453 447.224-273.453 447.224-352.929 447.224-352.929 447.224-361.012 439.141-369.094 431.059-369.094" stroke="#ED7D31" stroke-width="6" fill="#FFFFFF" transform="matrix(1 0 0 1.00162 35.3882 2585.2)"/><text font-family="Times New Roman,Times New Roman_MSFontService,sans-serif" font-weight="400" font-size="14" transform="matrix(1.34706 0 0 1.34924 311.535 2236)">'<tspan font-size="14" x="2.99999" y="0">debug</tspan><tspan font-size="14" x="37" y="0">=</tspan><tspan font-size="14" x="45" y="0">True</tspan><tspan font-size="14" x="-18.5" y="14.8231">home</tspan><tspan font-size="14" x="12.5" y="14.8231">=</tspan><tspan font-size="14" x="20.5" y="14.8231">C</tspan><tspan font-size="14" x="29.5" y="14.8231">:</tspan><tspan font-size="14" x="32.5" y="14.8231">Usersalibo</tspan><tspan font-size="14" x="-48.5" y="29.6462">job</tspan><tspan font-size="14" x="-31.5" y="29.6462">-</tspan><tspan font-size="14" x="-26.5" y="29.6462">rivanna</tspan><tspan font-size="14" x="14.5" y="29.6462">.</tspan><tspan font-size="14" x="18.5" y="29.6462">hpc</tspan><tspan font-size="14" x="39.5" y="29.6462">.</tspan><tspan font-size="14" x="43.5" y="29.6462">virginia</tspan><tspan font-size="14" x="84.5" y="29.6462">.</tspan><tspan font-size="14" x="88.5" y="29.6462">edu</tspan><tspan font-size="14" x="108.5" y="29.6462">-</tspan><tspan font-size="14" x="113.5" y="29.6462">4</tspan><tspan font-size="14" x="-23.5" y="45.2105">07</tspan><tspan font-size="14" x="-9.50002" y="45.2105">/</tspan><tspan font-size="14" x="-5.50002" y="45.2105">27</tspan><tspan font-size="14" x="8.49999" y="45.2105">/</tspan><tspan font-size="14" x="12.5" y="45.2105">2022</tspan><tspan font-size="14" x="40.5" y="45.2105">, </tspan><tspan font-size="14" x="48.5" y="45.2105">11</tspan><tspan font-size="14" x="61.5" y="45.2105">:</tspan><tspan font-size="14" x="64.5" y="45.2105">01</tspan>:05<tspan font-size="14" x="2.5" y="60.0336">progress</tspan><tspan font-size="14" x="51.5" y="60.0336">=</tspan><tspan font-size="14" x="59.5" y="60.0336">0</tspan>'</text><path d="M324.641-417.467C324.641-406.34 324.641-394.5 324.641-382.969" stroke="#ED7D31" stroke-width="6" fill="none" transform="matrix(1 0 0 1.00162 35.3882 2585.2)"/><path d="M329.356-382.592 324.641-369.121 319.926-382.592 329.356-382.592Z" stroke="#ED7D31" stroke-width="6" transform="matrix(1 0 0 1.00162 35.3882 2585.2)"/><path d="M431.059-208.794C431.059-208.794 218.224-208.794 218.224-208.794 210.141-208.794 202.059-200.712 202.059-192.629 202.059-192.629 202.059-113.153 202.059-113.153 202.059-105.071 210.141-96.9882 218.224-96.9882 218.224-96.9882 431.059-96.9882 431.059-96.9882 439.141-96.9882 447.224-105.071 447.224-113.153 447.224-113.153 447.224-192.629 447.224-192.629 447.224-200.712 439.141-208.794 431.059-208.794" stroke="#ED7D31" stroke-width="6" fill="#FFFFFF" transform="matrix(1 0 0 1.00162 35.3882 2585.2)"/><text font-family="Times New Roman,Times New Roman_MSFontService,sans-serif" font-weight="400" font-size="14" transform="matrix(1.34706 0 0 1.34924 311.535 2397)">'<tspan font-size="14" x="2.99999" y="0">debug</tspan><tspan font-size="14" x="37" y="0">=</tspan><tspan font-size="14" x="45" y="0">True</tspan><tspan font-size="14" x="-18.5" y="14.8231">home</tspan><tspan font-size="14" x="12.5" y="14.8231">=</tspan><tspan font-size="14" x="20.5" y="14.8231">C</tspan><tspan font-size="14" x="29.5" y="14.8231">:</tspan><tspan font-size="14" x="32.5" y="14.8231">Usersalibo</tspan><tspan font-size="14" x="-48.5" y="29.6462">job</tspan><tspan font-size="14" x="-31.5" y="29.6462">-</tspan><tspan font-size="14" x="-26.5" y="29.6462">rivanna</tspan><tspan font-size="14" x="14.5" y="29.6462">.</tspan><tspan font-size="14" x="18.5" y="29.6462">hpc</tspan><tspan font-size="14" x="39.5" y="29.6462">.</tspan><tspan font-size="14" x="43.5" y="29.6462">virginia</tspan><tspan font-size="14" x="84.5" y="29.6462">.</tspan><tspan font-size="14" x="88.5" y="29.6462">edu</tspan><tspan font-size="14" x="108.5" y="29.6462">-</tspan><tspan font-size="14" x="113.5" y="29.6462">5</tspan><tspan font-size="14" x="-23.5" y="44.4693">07</tspan><tspan font-size="14" x="-9.50002" y="44.4693">/</tspan><tspan font-size="14" x="-5.50002" y="44.4693">27</tspan><tspan font-size="14" x="8.49999" y="44.4693">/</tspan><tspan font-size="14" x="12.5" y="44.4693">2022</tspan><tspan font-size="14" x="40.5" y="44.4693">, </tspan><tspan font-size="14" x="48.5" y="44.4693">11</tspan><tspan font-size="14" x="61.5" y="44.4693">:</tspan><tspan font-size="14" x="64.5" y="44.4693">01</tspan>:05<tspan font-size="14" x="2.5" y="60.0336">progress</tspan><tspan font-size="14" x="51.5" y="60.0336">=</tspan><tspan font-size="14" x="59.5" y="60.0336">0</tspan>'</text><path d="M324.641-257.167C324.641-246.04 324.641-234.2 324.641-222.669" stroke="#ED7D31" stroke-width="6" fill="none" transform="matrix(1 0 0 1.00162 35.3882 2585.2)"/><path d="M329.356-222.292 324.641-208.821 319.926-222.292 329.356-222.292Z" stroke="#ED7D31" stroke-width="6" transform="matrix(1 0 0 1.00162 35.3882 2585.2)"/><path d="M272.995-96.6649C258.177-80.9178 242.713-64.4972 230.387-51.4038" stroke="#ED7D31" stroke-width="6" fill="none" transform="matrix(1 0 0 1.00162 35.3882 2585.2)"/><path d="M233.526-47.8475 220.864-41.2739 226.656-54.3134 233.526-47.8475Z" stroke="#ED7D31" stroke-width="6" transform="matrix(1 0 0 1.00162 35.3882 2585.2)"/></g></svg>