<?xml version="1.0" encoding="UTF-8" standalone="no"?>
<!DOCTYPE svg PUBLIC "-//W3C//DTD SVG 1.1//EN"
 "http://www.w3.org/Graphics/SVG/1.1/DTD/svg11.dtd">
<!-- Generated by graphviz version 5.0.0 (20220707.1540)
 -->
<!-- Pages: 1 -->
<svg width="88pt" height="338pt"
 viewBox="0.00 0.00 88.00 338.00" xmlns="http://www.w3.org/2000/svg" xmlns:xlink="http://www.w3.org/1999/xlink">
<g id="graph0" class="graph" transform="scale(1 1) rotate(0) translate(4 334)">
<polygon fill="white" stroke="transparent" points="-4,4 -4,-334 84,-334 84,4 -4,4"/>
<!-- start -->
<g id="node1" class="node">
<title>start</title>
<path fill="#ccffcc" stroke="black" d="M29.16,-324.85C29.16,-324.85 12.97,-317.15 12.97,-317.15 7.55,-314.58 7.55,-309.42 12.97,-306.85 12.97,-306.85 29.16,-299.15 29.16,-299.15 34.58,-296.58 45.42,-296.58 50.84,-299.15 50.84,-299.15 67.03,-306.85 67.03,-306.85 72.45,-309.42 72.45,-314.58 67.03,-317.15 67.03,-317.15 50.84,-324.85 50.84,-324.85 45.42,-327.42 34.58,-327.42 29.16,-324.85"/>
<text text-anchor="middle" x="40" y="-308.3" font-family="Times New Roman,serif" font-size="14.00">start</text>
</g>
<!-- fetch&#45;data -->
<g id="node3" class="node">
<title>fetch&#45;data</title>
<path fill="white" stroke="black" d="M68,-258C68,-258 12,-258 12,-258 6,-258 0,-252 0,-246 0,-246 0,-232 0,-232 0,-226 6,-220 12,-220 12,-220 68,-220 68,-220 74,-220 80,-226 80,-232 80,-232 80,-246 80,-246 80,-252 74,-258 68,-258"/>
<text text-anchor="middle" x="40" y="-242.8" font-family="Times New Roman,serif" font-size="14.00">fetch&#45;data</text>
<text text-anchor="middle" x="40" y="-227.8" font-family="Times New Roman,serif" font-size="14.00">progress=0</text>
</g>
<!-- start&#45;&gt;fetch&#45;data -->
<g id="edge1" class="edge">
<title>start&#45;&gt;fetch&#45;data</title>
<path fill="none" stroke="black" d="M40,-293.81C40,-286.11 40,-276.82 40,-268.15"/>
<polygon fill="black" stroke="black" points="43.5,-268.02 40,-258.02 36.5,-268.02 43.5,-268.02"/>
</g>
<!-- end -->
<g id="node2" class="node">
<title>end</title>
<path fill="white" stroke="black" d="M29.39,-30.39C29.39,-30.39 16.59,-23.61 16.59,-23.61 11.29,-20.81 11.29,-15.19 16.59,-12.39 16.59,-12.39 29.39,-5.61 29.39,-5.61 34.7,-2.81 45.3,-2.81 50.61,-5.61 50.61,-5.61 63.41,-12.39 63.41,-12.39 68.71,-15.19 68.71,-20.81 63.41,-23.61 63.41,-23.61 50.61,-30.39 50.61,-30.39 45.3,-33.19 34.7,-33.19 29.39,-30.39"/>
<text text-anchor="middle" x="40" y="-14.3" font-family="Times New Roman,serif" font-size="14.00">end</text>
</g>
<!-- compute -->
<g id="node4" class="node">
<title>compute</title>
<path fill="white" stroke="black" d="M68,-184C68,-184 12,-184 12,-184 6,-184 0,-178 0,-172 0,-172 0,-158 0,-158 0,-152 6,-146 12,-146 12,-146 68,-146 68,-146 74,-146 80,-152 80,-158 80,-158 80,-172 80,-172 80,-178 74,-184 68,-184"/>
<text text-anchor="middle" x="40" y="-168.8" font-family="Times New Roman,serif" font-size="14.00">compute</text>
<text text-anchor="middle" x="40" y="-153.8" font-family="Times New Roman,serif" font-size="14.00">progress=0</text>
</g>
<!-- fetch&#45;data&#45;&gt;compute -->
<g id="edge2" class="edge">
<title>fetch&#45;data&#45;&gt;compute</title>
<path fill="none" stroke="black" d="M40,-219.83C40,-212.13 40,-202.97 40,-194.42"/>
<polygon fill="black" stroke="black" points="43.5,-194.41 40,-184.41 36.5,-194.41 43.5,-194.41"/>
</g>
<!-- analyze -->
<g id="node5" class="node">
<title>analyze</title>
<path fill="white" stroke="black" d="M68,-110C68,-110 12,-110 12,-110 6,-110 0,-104 0,-98 0,-98 0,-84 0,-84 0,-78 6,-72 12,-72 12,-72 68,-72 68,-72 74,-72 80,-78 80,-84 80,-84 80,-98 80,-98 80,-104 74,-110 68,-110"/>
<text text-anchor="middle" x="40" y="-94.8" font-family="Times New Roman,serif" font-size="14.00">analyze</text>
<text text-anchor="middle" x="40" y="-79.8" font-family="Times New Roman,serif" font-size="14.00">progress=0</text>
</g>
<!-- compute&#45;&gt;analyze -->
<g id="edge3" class="edge">
<title>compute&#45;&gt;analyze</title>
<path fill="none" stroke="black" d="M40,-145.83C40,-138.13 40,-128.97 40,-120.42"/>
<polygon fill="black" stroke="black" points="43.5,-120.41 40,-110.41 36.5,-120.41 43.5,-120.41"/>
</g>
<!-- analyze&#45;&gt;end -->
<g id="edge4" class="edge">
<title>analyze&#45;&gt;end</title>
<path fill="none" stroke="black" d="M40,-71.72C40,-63.97 40,-54.79 40,-46.27"/>
<polygon fill="black" stroke="black" points="43.5,-46 40,-36 36.5,-46 43.5,-46"/>
</g>
</g>
</svg>
