<?xml version="1.0" encoding="utf-8"?>
<!-- Generator: Adobe Illustrator 24.1.1, SVG Export Plug-In . SVG Version: 6.00 Build 0)  -->
<svg version="1.1" id="Layer_1" xmlns="http://www.w3.org/2000/svg" xmlns:xlink="http://www.w3.org/1999/xlink" x="0px" y="0px"
	 viewBox="0 0 102 338" style="enable-background:new 0 0 102 338;" xml:space="preserve">
<style type="text/css">
	.st0{fill:#FFFFFF;}
	.st1{fill:#CCFFCC;stroke:#000000;}
	.st2{font-family:'TimesNewRomanPSMT';}
	.st3{font-size:14px;}
	.st4{fill:#CCE5FF;stroke:#000000;}
	.st5{fill:none;stroke:#000000;}
	.st6{stroke:#000000;}
	.st7{fill:#FFFFFF;stroke:#000000;}
</style>
<g id="graph0" transform="scale(1 1) rotate(0) translate(4 334)">
	<polygon class="st0" points="-0.5,4 -0.5,-334 94.5,-334 94.5,4 	"/>
	<g id="node1">
		<path class="st1" d="M36.2-324.9L20-317.1c-5.4,2.6-5.4,7.7,0,10.3l16.2,7.7c5.4,2.6,16.3,2.6,21.7,0l16.2-7.7
			c5.4-2.6,5.4-7.7,0-10.3l-16.2-7.7C52.4-327.4,41.6-327.4,36.2-324.9"/>
		<text transform="matrix(1 0 0 1 34.9482 -308.3)" class="st2 st3">start</text>
	</g>
	<g id="node3">
		<path class="st4" d="M78.5-258h-63c-6,0-12,6-12,12v14c0,6,6,12,12,12h63c6,0,12-6,12-12v-14C90.5-252,84.5-258,78.5-258"/>
		<text transform="matrix(1 0 0 1 19.0205 -242.8)" class="st2 st3">fetch-data</text>
		<text transform="matrix(1 0 0 1 12.335 -227.8)" class="st2 st3">progress=50</text>
	</g>
	<g id="edge1">
		<path class="st5" d="M47-293.8c0,7.7,0,17,0,25.7"/>
		<polygon class="st6" points="50.5,-268 47,-258 43.5,-268 		"/>
	</g>
	<g id="node2">
		<path class="st7" d="M36.4-30.4l-12.8,6.8c-5.3,2.8-5.3,8.4,0,11.2l12.8,6.8c5.3,2.8,15.9,2.8,21.2,0l12.8-6.8
			c5.3-2.8,5.3-8.4,0-11.2l-12.8-6.8C52.3-33.2,41.7-33.2,36.4-30.4"/>
		<text transform="matrix(1 0 0 1 36.8931 -14.3)" class="st2 st3">end</text>
	</g>
	<g id="node4">
		<path class="st7" d="M75-184H19c-6,0-12,6-12,12v14c0,6,6,12,12,12h56c6,0,12-6,12-12v-14C87-178,81-184,75-184"/>
		<text transform="matrix(1 0 0 1 22.8965 -168.8)" class="st2 st3">compute</text>
		<text transform="matrix(1 0 0 1 15.835 -153.8)" class="st2 st3">progress=0</text>
	</g>
	<g id="edge2">
		<path class="st5" d="M47-219.8c0,7.7,0,16.9,0,25.4"/>
		<polygon class="st6" points="50.5,-194.4 47,-184.4 43.5,-194.4 		"/>
	</g>
	<g id="node5">
		<path class="st7" d="M75-110H19c-6,0-12,6-12,12v14c0,6,6,12,12,12h56c6,0,12-6,12-12v-14C87-104,81-110,75-110"/>
		<text transform="matrix(1 0 0 1 25.6274 -94.8)" class="st2 st3">analyze</text>
		<text transform="matrix(1 0 0 1 15.835 -79.8)" class="st2 st3">progress=0</text>
	</g>
	<g id="edge3">
		<path class="st5" d="M47-145.8c0,7.7,0,16.9,0,25.4"/>
		<polygon class="st6" points="50.5,-120.4 47,-110.4 43.5,-120.4 		"/>
	</g>
	<g id="edge4">
		<path class="st5" d="M47-71.7c0,7.8,0,16.9,0,25.5"/>
		<polygon class="st6" points="50.5,-46 47,-36 43.5,-46 		"/>
	</g>
</g>
</svg>
