<?xml version="1.0" encoding="UTF-8" standalone="no"?>
<!DOCTYPE svg PUBLIC "-//W3C//DTD SVG 1.1//EN"
 "http://www.w3.org/Graphics/SVG/1.1/DTD/svg11.dtd">
<!-- Generated by graphviz version 5.0.0 (20220707.1540)
 -->
<!-- Pages: 1 -->
<svg width="140pt" height="383pt"
 viewBox="0.00 0.00 140.00 383.00" xmlns="http://www.w3.org/2000/svg" xmlns:xlink="http://www.w3.org/1999/xlink">
<g id="graph0" class="graph" transform="scale(1 1) rotate(0) translate(4 379)">
<polygon fill="white" stroke="transparent" points="-4,4 -4,-379 136,-379 136,4 -4,4"/>
<!-- start -->
<g id="node1" class="node">
<title>start</title>
<path fill="white" stroke="black" d="M55.16,-369.85C55.16,-369.85 38.97,-362.15 38.97,-362.15 33.55,-359.58 33.55,-354.42 38.97,-351.85 38.97,-351.85 55.16,-344.15 55.16,-344.15 60.58,-341.58 71.42,-341.58 76.84,-344.15 76.84,-344.15 93.03,-351.85 93.03,-351.85 98.45,-354.42 98.45,-359.58 93.03,-362.15 93.03,-362.15 76.84,-369.85 76.84,-369.85 71.42,-372.42 60.58,-372.42 55.16,-369.85"/>
<text text-anchor="middle" x="66" y="-353.3" font-family="Times New Roman,serif" font-size="14.00">start</text>
</g>
<!-- fetch&#45;data -->
<g id="node3" class="node">
<title>fetch&#45;data</title>
<path fill="white" stroke="black" d="M120,-303C120,-303 12,-303 12,-303 6,-303 0,-297 0,-291 0,-291 0,-262 0,-262 0,-256 6,-250 12,-250 12,-250 120,-250 120,-250 126,-250 132,-256 132,-262 132,-262 132,-291 132,-291 132,-297 126,-303 120,-303"/>
<text text-anchor="middle" x="66" y="-287.8" font-family="Times New Roman,serif" font-size="14.00">&#39;fetch&#45;data</text>
<text text-anchor="middle" x="66" y="-272.8" font-family="Times New Roman,serif" font-size="14.00">09/16/2022, 02:15:42</text>
<text text-anchor="middle" x="66" y="-257.8" font-family="Times New Roman,serif" font-size="14.00">progress=0&#39;</text>
</g>
<!-- start&#45;&gt;fetch&#45;data -->
<g id="edge1" class="edge">
<title>start&#45;&gt;fetch&#45;data</title>
<path fill="none" stroke="black" d="M66,-338.97C66,-331.45 66,-322.31 66,-313.4"/>
<polygon fill="black" stroke="black" points="69.5,-313.16 66,-303.16 62.5,-313.16 69.5,-313.16"/>
</g>
<!-- end -->
<g id="node2" class="node">
<title>end</title>
<path fill="white" stroke="black" d="M55.39,-30.39C55.39,-30.39 42.59,-23.61 42.59,-23.61 37.29,-20.81 37.29,-15.19 42.59,-12.39 42.59,-12.39 55.39,-5.61 55.39,-5.61 60.7,-2.81 71.3,-2.81 76.61,-5.61 76.61,-5.61 89.41,-12.39 89.41,-12.39 94.71,-15.19 94.71,-20.81 89.41,-23.61 89.41,-23.61 76.61,-30.39 76.61,-30.39 71.3,-33.19 60.7,-33.19 55.39,-30.39"/>
<text text-anchor="middle" x="66" y="-14.3" font-family="Times New Roman,serif" font-size="14.00">end</text>
</g>
<!-- compute -->
<g id="node4" class="node">
<title>compute</title>
<path fill="white" stroke="black" d="M120,-214C120,-214 12,-214 12,-214 6,-214 0,-208 0,-202 0,-202 0,-173 0,-173 0,-167 6,-161 12,-161 12,-161 120,-161 120,-161 126,-161 132,-167 132,-173 132,-173 132,-202 132,-202 132,-208 126,-214 120,-214"/>
<text text-anchor="middle" x="66" y="-198.8" font-family="Times New Roman,serif" font-size="14.00">&#39;compute</text>
<text text-anchor="middle" x="66" y="-183.8" font-family="Times New Roman,serif" font-size="14.00">09/16/2022, 02:15:42</text>
<text text-anchor="middle" x="66" y="-168.8" font-family="Times New Roman,serif" font-size="14.00">progress=0&#39;</text>
</g>
<!-- fetch&#45;data&#45;&gt;compute -->
<g id="edge2" class="edge">
<title>fetch&#45;data&#45;&gt;compute</title>
<path fill="none" stroke="black" d="M66,-249.87C66,-241.89 66,-232.93 66,-224.38"/>
<polygon fill="black" stroke="black" points="69.5,-224.25 66,-214.25 62.5,-224.25 69.5,-224.25"/>
</g>
<!-- analyze -->
<g id="node5" class="node">
<title>analyze</title>
<path fill="white" stroke="black" d="M120,-125C120,-125 12,-125 12,-125 6,-125 0,-119 0,-113 0,-113 0,-84 0,-84 0,-78 6,-72 12,-72 12,-72 120,-72 120,-72 126,-72 132,-78 132,-84 132,-84 132,-113 132,-113 132,-119 126,-125 120,-125"/>
<text text-anchor="middle" x="66" y="-109.8" font-family="Times New Roman,serif" font-size="14.00">&#39;analyze</text>
<text text-anchor="middle" x="66" y="-94.8" font-family="Times New Roman,serif" font-size="14.00">09/16/2022, 02:15:42</text>
<text text-anchor="middle" x="66" y="-79.8" font-family="Times New Roman,serif" font-size="14.00">progress=0&#39;</text>
</g>
<!-- compute&#45;&gt;analyze -->
<g id="edge3" class="edge">
<title>compute&#45;&gt;analyze</title>
<path fill="none" stroke="black" d="M66,-160.87C66,-152.89 66,-143.93 66,-135.38"/>
<polygon fill="black" stroke="black" points="69.5,-135.25 66,-125.25 62.5,-135.25 69.5,-135.25"/>
</g>
<!-- analyze&#45;&gt;end -->
<g id="edge4" class="edge">
<title>analyze&#45;&gt;end</title>
<path fill="none" stroke="black" d="M66,-71.8C66,-63.71 66,-54.76 66,-46.55"/>
<polygon fill="black" stroke="black" points="69.5,-46.33 66,-36.33 62.5,-46.33 69.5,-46.33"/>
</g>
</g>
</svg>
