<?xml version="1.0" encoding="UTF-8" standalone="no"?>
<!DOCTYPE svg PUBLIC "-//W3C//DTD SVG 1.1//EN"
 "http://www.w3.org/Graphics/SVG/1.1/DTD/svg11.dtd">
<!-- Generated by graphviz version 5.0.0 (20220707.1540)
 -->
<!-- Pages: 1 -->
<svg width="102pt" height="338pt"
 viewBox="0.00 0.00 102.00 338.00" xmlns="http://www.w3.org/2000/svg" xmlns:xlink="http://www.w3.org/1999/xlink">
<g id="graph0" class="graph" transform="scale(1 1) rotate(0) translate(4 334)">
<polygon fill="white" stroke="transparent" points="-4,4 -4,-334 98,-334 98,4 -4,4"/>
<!-- start -->
<g id="node1" class="node">
<title>start</title>
<path fill="#ccffcc" stroke="black" d="M36.16,-324.85C36.16,-324.85 19.97,-317.15 19.97,-317.15 14.55,-314.58 14.55,-309.42 19.97,-306.85 19.97,-306.85 36.16,-299.15 36.16,-299.15 41.58,-296.58 52.42,-296.58 57.84,-299.15 57.84,-299.15 74.03,-306.85 74.03,-306.85 79.45,-309.42 79.45,-314.58 74.03,-317.15 74.03,-317.15 57.84,-324.85 57.84,-324.85 52.42,-327.42 41.58,-327.42 36.16,-324.85"/>
<text text-anchor="middle" x="47" y="-308.3" font-family="Times New Roman,serif" font-size="14.00">start</text>
</g>
<!-- fetch&#45;data -->
<g id="node3" class="node">
<title>fetch&#45;data</title>
<path fill="#ccffcc" stroke="black" d="M82,-258C82,-258 12,-258 12,-258 6,-258 0,-252 0,-246 0,-246 0,-232 0,-232 0,-226 6,-220 12,-220 12,-220 82,-220 82,-220 88,-220 94,-226 94,-232 94,-232 94,-246 94,-246 94,-252 88,-258 82,-258"/>
<text text-anchor="middle" x="47" y="-242.8" font-family="Times New Roman,serif" font-size="14.00">fetch&#45;data</text>
<text text-anchor="middle" x="47" y="-227.8" font-family="Times New Roman,serif" font-size="14.00">progress=100</text>
</g>
<!-- start&#45;&gt;fetch&#45;data -->
<g id="edge1" class="edge">
<title>start&#45;&gt;fetch&#45;data</title>
<path fill="none" stroke="black" d="M47,-293.81C47,-286.11 47,-276.82 47,-268.15"/>
<polygon fill="black" stroke="black" points="50.5,-268.02 47,-258.02 43.5,-268.02 50.5,-268.02"/>
</g>
<!-- end -->
<g id="node2" class="node">
<title>end</title>
<path fill="white" stroke="black" d="M36.39,-30.39C36.39,-30.39 23.59,-23.61 23.59,-23.61 18.29,-20.81 18.29,-15.19 23.59,-12.39 23.59,-12.39 36.39,-5.61 36.39,-5.61 41.7,-2.81 52.3,-2.81 57.61,-5.61 57.61,-5.61 70.41,-12.39 70.41,-12.39 75.71,-15.19 75.71,-20.81 70.41,-23.61 70.41,-23.61 57.61,-30.39 57.61,-30.39 52.3,-33.19 41.7,-33.19 36.39,-30.39"/>
<text text-anchor="middle" x="47" y="-14.3" font-family="Times New Roman,serif" font-size="14.00">end</text>
</g>
<!-- compute -->
<g id="node4" class="node">
<title>compute</title>
<path fill="#ccffcc" stroke="black" d="M82,-184C82,-184 12,-184 12,-184 6,-184 0,-178 0,-172 0,-172 0,-158 0,-158 0,-152 6,-146 12,-146 12,-146 82,-146 82,-146 88,-146 94,-152 94,-158 94,-158 94,-172 94,-172 94,-178 88,-184 82,-184"/>
<text text-anchor="middle" x="47" y="-168.8" font-family="Times New Roman,serif" font-size="14.00">compute</text>
<text text-anchor="middle" x="47" y="-153.8" font-family="Times New Roman,serif" font-size="14.00">progress=100</text>
</g>
<!-- fetch&#45;data&#45;&gt;compute -->
<g id="edge2" class="edge">
<title>fetch&#45;data&#45;&gt;compute</title>
<path fill="none" stroke="black" d="M47,-219.83C47,-212.13 47,-202.97 47,-194.42"/>
<polygon fill="black" stroke="black" points="50.5,-194.41 47,-184.41 43.5,-194.41 50.5,-194.41"/>
</g>
<!-- analyze -->
<g id="node5" class="node">
<title>analyze</title>
<path fill="#ccffcc" stroke="black" d="M82,-110C82,-110 12,-110 12,-110 6,-110 0,-104 0,-98 0,-98 0,-84 0,-84 0,-78 6,-72 12,-72 12,-72 82,-72 82,-72 88,-72 94,-78 94,-84 94,-84 94,-98 94,-98 94,-104 88,-110 82,-110"/>
<text text-anchor="middle" x="47" y="-94.8" font-family="Times New Roman,serif" font-size="14.00">analyze</text>
<text text-anchor="middle" x="47" y="-79.8" font-family="Times New Roman,serif" font-size="14.00">progress=100</text>
</g>
<!-- compute&#45;&gt;analyze -->
<g id="edge3" class="edge">
<title>compute&#45;&gt;analyze</title>
<path fill="none" stroke="black" d="M47,-145.83C47,-138.13 47,-128.97 47,-120.42"/>
<polygon fill="black" stroke="black" points="50.5,-120.41 47,-110.41 43.5,-120.41 50.5,-120.41"/>
</g>
<!-- analyze&#45;&gt;end -->
<g id="edge4" class="edge">
<title>analyze&#45;&gt;end</title>
<path fill="none" stroke="black" d="M47,-71.72C47,-63.97 47,-54.79 47,-46.27"/>
<polygon fill="black" stroke="black" points="50.5,-46 47,-36 43.5,-46 50.5,-46"/>
</g>
</g>
</svg>
