<?xml version="1.0" encoding="UTF-8" standalone="no"?>
<!DOCTYPE svg PUBLIC "-//W3C//DTD SVG 1.1//EN"
 "http://www.w3.org/Graphics/SVG/1.1/DTD/svg11.dtd">
<!-- Generated by graphviz version 5.0.0 (20220707.1540)
 -->
<!-- Pages: 1 -->
<svg width="95pt" height="338pt"
 viewBox="0.00 0.00 95.00 338.00" xmlns="http://www.w3.org/2000/svg" xmlns:xlink="http://www.w3.org/1999/xlink">
<g id="graph0" class="graph" transform="scale(1 1) rotate(0) translate(4 334)">
<polygon fill="white" stroke="transparent" points="-4,4 -4,-334 91,-334 91,4 -4,4"/>
<!-- start -->
<g id="node1" class="node">
<title>start</title>
<path fill="#ccffcc" stroke="black" d="M32.66,-324.85C32.66,-324.85 16.47,-317.15 16.47,-317.15 11.05,-314.58 11.05,-309.42 16.47,-306.85 16.47,-306.85 32.66,-299.15 32.66,-299.15 38.08,-296.58 48.92,-296.58 54.34,-299.15 54.34,-299.15 70.53,-306.85 70.53,-306.85 75.95,-309.42 75.95,-314.58 70.53,-317.15 70.53,-317.15 54.34,-324.85 54.34,-324.85 48.92,-327.42 38.08,-327.42 32.66,-324.85"/>
<text text-anchor="middle" x="43.5" y="-308.3" font-family="Times New Roman,serif" font-size="14.00">start</text>
</g>
<!-- fetch&#45;data -->
<g id="node3" class="node">
<title>fetch&#45;data</title>
<path fill="#cce5ff" stroke="black" d="M75,-258C75,-258 12,-258 12,-258 6,-258 0,-252 0,-246 0,-246 0,-232 0,-232 0,-226 6,-220 12,-220 12,-220 75,-220 75,-220 81,-220 87,-226 87,-232 87,-232 87,-246 87,-246 87,-252 81,-258 75,-258"/>
<text text-anchor="middle" x="43.5" y="-242.8" font-family="Times New Roman,serif" font-size="14.00">fetch&#45;data</text>
<text text-anchor="middle" x="43.5" y="-227.8" font-family="Times New Roman,serif" font-size="14.00">progress=50</text>
</g>
<!-- start&#45;&gt;fetch&#45;data -->
<g id="edge1" class="edge">
<title>start&#45;&gt;fetch&#45;data</title>
<path fill="none" stroke="black" d="M43.5,-293.81C43.5,-286.11 43.5,-276.82 43.5,-268.15"/>
<polygon fill="black" stroke="black" points="47,-268.02 43.5,-258.02 40,-268.02 47,-268.02"/>
</g>
<!-- end -->
<g id="node2" class="node">
<title>end</title>
<path fill="white" stroke="black" d="M32.89,-30.39C32.89,-30.39 20.09,-23.61 20.09,-23.61 14.79,-20.81 14.79,-15.19 20.09,-12.39 20.09,-12.39 32.89,-5.61 32.89,-5.61 38.2,-2.81 48.8,-2.81 54.11,-5.61 54.11,-5.61 66.91,-12.39 66.91,-12.39 72.21,-15.19 72.21,-20.81 66.91,-23.61 66.91,-23.61 54.11,-30.39 54.11,-30.39 48.8,-33.19 38.2,-33.19 32.89,-30.39"/>
<text text-anchor="middle" x="43.5" y="-14.3" font-family="Times New Roman,serif" font-size="14.00">end</text>
</g>
<!-- compute -->
<g id="node4" class="node">
<title>compute</title>
<path fill="white" stroke="black" d="M71.5,-184C71.5,-184 15.5,-184 15.5,-184 9.5,-184 3.5,-178 3.5,-172 3.5,-172 3.5,-158 3.5,-158 3.5,-152 9.5,-146 15.5,-146 15.5,-146 71.5,-146 71.5,-146 77.5,-146 83.5,-152 83.5,-158 83.5,-158 83.5,-172 83.5,-172 83.5,-178 77.5,-184 71.5,-184"/>
<text text-anchor="middle" x="43.5" y="-168.8" font-family="Times New Roman,serif" font-size="14.00">compute</text>
<text text-anchor="middle" x="43.5" y="-153.8" font-family="Times New Roman,serif" font-size="14.00">progress=0</text>
</g>
<!-- fetch&#45;data&#45;&gt;compute -->
<g id="edge2" class="edge">
<title>fetch&#45;data&#45;&gt;compute</title>
<path fill="none" stroke="black" d="M43.5,-219.83C43.5,-212.13 43.5,-202.97 43.5,-194.42"/>
<polygon fill="black" stroke="black" points="47,-194.41 43.5,-184.41 40,-194.41 47,-194.41"/>
</g>
<!-- analyze -->
<g id="node5" class="node">
<title>analyze</title>
<path fill="white" stroke="black" d="M71.5,-110C71.5,-110 15.5,-110 15.5,-110 9.5,-110 3.5,-104 3.5,-98 3.5,-98 3.5,-84 3.5,-84 3.5,-78 9.5,-72 15.5,-72 15.5,-72 71.5,-72 71.5,-72 77.5,-72 83.5,-78 83.5,-84 83.5,-84 83.5,-98 83.5,-98 83.5,-104 77.5,-110 71.5,-110"/>
<text text-anchor="middle" x="43.5" y="-94.8" font-family="Times New Roman,serif" font-size="14.00">analyze</text>
<text text-anchor="middle" x="43.5" y="-79.8" font-family="Times New Roman,serif" font-size="14.00">progress=0</text>
</g>
<!-- compute&#45;&gt;analyze -->
<g id="edge3" class="edge">
<title>compute&#45;&gt;analyze</title>
<path fill="none" stroke="black" d="M43.5,-145.83C43.5,-138.13 43.5,-128.97 43.5,-120.42"/>
<polygon fill="black" stroke="black" points="47,-120.41 43.5,-110.41 40,-120.41 47,-120.41"/>
</g>
<!-- analyze&#45;&gt;end -->
<g id="edge4" class="edge">
<title>analyze&#45;&gt;end</title>
<path fill="none" stroke="black" d="M43.5,-71.72C43.5,-63.97 43.5,-54.79 43.5,-46.27"/>
<polygon fill="black" stroke="black" points="47,-46 43.5,-36 40,-46 47,-46"/>
</g>
</g>
</svg>
